<?xml version="1.0" standalone="no"?>
<!DOCTYPE svg PUBLIC "-//W3C//DTD SVG 20010904//EN"
 "http://www.w3.org/TR/2001/REC-SVG-20010904/DTD/svg10.dtd">
<svg version="1.0" xmlns="http://www.w3.org/2000/svg"
 width="300.000000pt" height="300.000000pt" viewBox="0 0 300.000000 300.000000"
 preserveAspectRatio="xMidYMid meet">
<metadata>
Created by potrace 1.11, written by Peter Selinger 2001-2013
</metadata>
<g transform="translate(0.000000,300.000000) scale(0.100000,-0.100000)"
fill="#000000" stroke="none">
<path d="M1410 2611 c-92 -30 -174 -102 -218 -190 -22 -47 -27 -69 -27 -136 0
-67 5 -89 27 -135 42 -84 82 -126 156 -162 60 -30 75 -33 157 -33 84 0 95 2
153 34 71 39 110 81 150 161 23 46 27 68 26 135 0 95 -29 167 -94 234 -63 64
-130 94 -225 97 -44 2 -91 0 -105 -5z"/>
<path d="M1253 1895 c-82 -18 -122 -38 -165 -83 -20 -20 -104 -156 -187 -302
l-152 -265 -183 -185 c-165 -166 -185 -189 -191 -227 -20 -121 126 -234 232
-180 39 21 323 285 371 346 21 26 58 82 82 125 44 76 45 77 51 48 3 -17 9
-120 13 -230 l8 -199 -154 -42 c-250 -69 -255 -71 -290 -94 -42 -28 -87 -112
-95 -174 -14 -119 51 -209 163 -228 48 -7 73 -3 442 76 150 33 286 59 302 59
15 0 165 -30 332 -66 327 -72 417 -82 474 -51 72 37 111 120 100 211 -7 60
-53 144 -95 173 -34 23 -39 25 -289 94 l-154 42 8 206 c4 113 10 216 13 229 5
19 14 9 60 -70 46 -79 78 -117 215 -252 181 -178 231 -216 288 -216 105 0 189
95 173 194 -6 37 -27 61 -191 226 l-183 185 -152 265 c-83 146 -165 280 -183
298 -72 77 -179 102 -428 101 -105 0 -197 -6 -235 -14z"/>
</g>
</svg>
